<svg width="19" height="18" viewBox="0 0 19 18" fill="none" xmlns="http://www.w3.org/2000/svg">
<circle r="9" transform="matrix(1 0 0 -1 9.06152 9)" fill="#B4B6BC"/>
<path d="M9.63255 14L9.53311 6.68182H8.37971L8.28027 14H9.63255ZM8.95641 3.73864C8.71114 3.73864 8.50068 3.82647 8.32502 4.00213C8.14935 4.17779 8.06152 4.38826 8.06152 4.63352C8.06152 4.87879 8.14935 5.08925 8.32502 5.26491C8.50068 5.44058 8.71114 5.52841 8.95641 5.52841C9.20167 5.52841 9.41214 5.44058 9.5878 5.26491C9.76346 5.08925 9.8513 4.87879 9.8513 4.63352C9.8513 4.47112 9.80987 4.32197 9.72701 4.18608C9.64746 4.05019 9.53974 3.94081 9.40385 3.85795C9.27128 3.77841 9.12213 3.73864 8.95641 3.73864Z" fill="white"/>
</svg>
