<svg width="19" height="18" viewBox="0 0 19 18" fill="none" xmlns="http://www.w3.org/2000/svg">
<circle cx="9.06152" cy="9" r="9" fill="#B4B6BC"/>
<path d="M8.10982 11.4574V11.3977C8.11645 10.7647 8.18274 10.2609 8.30868 9.88636C8.43463 9.51184 8.61361 9.20857 8.84561 8.97656C9.07762 8.74455 9.35603 8.53078 9.68084 8.33523C9.87639 8.21591 10.0521 8.07505 10.2078 7.91264C10.3636 7.74692 10.4862 7.55634 10.5757 7.34091C10.6685 7.12547 10.7149 6.88684 10.7149 6.625C10.7149 6.30019 10.6387 6.01847 10.4862 5.77983C10.3338 5.54119 10.1299 5.35724 9.87473 5.22798C9.61953 5.09872 9.33614 5.03409 9.02459 5.03409C8.75281 5.03409 8.49097 5.09044 8.23908 5.20312C7.98719 5.31581 7.77672 5.49313 7.60769 5.73509C7.43865 5.97704 7.34088 6.29356 7.31436 6.68466H6.06152C6.08804 6.12121 6.23387 5.63897 6.49902 5.23793C6.76749 4.83688 7.12047 4.5303 7.55797 4.31818C7.99879 4.10606 8.48766 4 9.02459 4C9.60792 4 10.115 4.116 10.5459 4.34801C10.9801 4.58002 11.3148 4.8982 11.5502 5.30256C11.7888 5.70691 11.9081 6.16761 11.9081 6.68466C11.9081 7.04924 11.8518 7.37902 11.7391 7.67401C11.6297 7.96899 11.4706 8.23248 11.2618 8.46449C11.0563 8.6965 10.8077 8.90199 10.5161 9.08097C10.2244 9.26326 9.99074 9.45549 9.81507 9.65767C9.63941 9.85653 9.51181 10.0935 9.43226 10.3686C9.35272 10.6437 9.30963 10.9867 9.303 11.3977V11.4574H8.10982ZM8.74618 14.4006C8.50092 14.4006 8.29045 14.3127 8.11479 14.1371C7.93913 13.9614 7.8513 13.7509 7.8513 13.5057C7.8513 13.2604 7.93913 13.05 8.11479 12.8743C8.29045 12.6986 8.50092 12.6108 8.74618 12.6108C8.99145 12.6108 9.20191 12.6986 9.37757 12.8743C9.55324 13.05 9.64107 13.2604 9.64107 13.5057C9.64107 13.6681 9.59964 13.8172 9.51678 13.9531C9.43723 14.089 9.32952 14.1984 9.19363 14.2812C9.06105 14.3608 8.9119 14.4006 8.74618 14.4006Z" fill="white"/>
</svg>
