<svg width="18" height="18" viewBox="0 0 18 18" fill="none" xmlns="http://www.w3.org/2000/svg">
<path d="M8.1416 11.8198H9.9916C10.5416 11.8198 10.9916 12.2698 10.9916 12.8198V16.9998H7.1416V12.8198C7.1416 12.2698 7.5916 11.8198 8.1416 11.8198Z" stroke="#021638" stroke-width="1.2" stroke-linecap="round" stroke-linejoin="round"/>
<path d="M4.06152 1H14.0615C15.7215 1 17.0615 2.34 17.0615 4V16C17.0615 16.55 16.6115 17 16.0615 17H2.06152C1.51152 17 1.06152 16.55 1.06152 16V4C1.06152 2.34 2.40152 1 4.06152 1Z" stroke="#021638" stroke-width="1.2" stroke-linecap="round" stroke-linejoin="round"/>
<path d="M4.90161 8.28979H6.83161" stroke="#021638" stroke-width="1.2" stroke-linecap="round" stroke-linejoin="round"/>
<path d="M4.90161 4.96985H6.83161" stroke="#454EE8" stroke-width="1.2" stroke-linecap="round" stroke-linejoin="round"/>
<path d="M11.2914 8.28979H13.2214" stroke="#454EE8" stroke-width="1.2" stroke-linecap="round" stroke-linejoin="round"/>
<path d="M11.2914 4.96997H13.2214" stroke="#021638" stroke-width="1.2" stroke-linecap="round" stroke-linejoin="round"/>
</svg>
