<svg width="18" height="18" viewBox="0 0 18 18" fill="none" xmlns="http://www.w3.org/2000/svg">
<path d="M9.06196 9.01016C10.3322 9.01016 11.362 7.98041 11.362 6.71016C11.362 5.4399 10.3322 4.41016 9.06196 4.41016C7.79171 4.41016 6.76196 5.4399 6.76196 6.71016C6.76196 7.98041 7.79171 9.01016 9.06196 9.01016Z" stroke="#454EE8" stroke-width="1.2" stroke-linecap="round" stroke-linejoin="round"/>
<path d="M11.5119 13.59H6.61188C5.34188 13.59 4.52188 12.18 5.21188 11.11C6.03188 9.85001 7.44188 9.01001 9.06188 9.01001C10.6819 9.01001 12.0919 9.85001 12.9019 11.11C13.5919 12.18 12.7719 13.59 11.5019 13.59H11.5119Z" stroke="#021638" stroke-width="1.2" stroke-linecap="round" stroke-linejoin="round"/>
<path d="M14.0615 1H4.06152C2.40467 1 1.06152 2.34315 1.06152 4V14C1.06152 15.6569 2.40467 17 4.06152 17H14.0615C15.7184 17 17.0615 15.6569 17.0615 14V4C17.0615 2.34315 15.7184 1 14.0615 1Z" stroke="#021638" stroke-width="1.2" stroke-linecap="round" stroke-linejoin="round"/>
</svg>
