<svg width="18" height="18" viewBox="0 0 18 18" fill="none" xmlns="http://www.w3.org/2000/svg">
<path d="M7.72418 7.60534C8.6394 7.60534 9.38134 6.8634 9.38134 5.94818C9.38134 5.03295 8.6394 4.29102 7.72418 4.29102C6.80895 4.29102 6.06702 5.03295 6.06702 5.94818C6.06702 6.8634 6.80895 7.60534 7.72418 7.60534Z" stroke="#454EE8" stroke-width="1.2" stroke-linecap="round" stroke-linejoin="round"/>
<path d="M4.78687 10.5424C4.78687 8.91953 6.10117 7.60522 7.72404 7.60522C9.34692 7.60522 10.6498 8.91953 10.6498 10.5424" stroke="#454EE8" stroke-width="1.2" stroke-linecap="round" stroke-linejoin="round"/>
<path d="M4.49014 1H10.9588C12.8559 1 14.3874 2.53145 14.3874 4.42861V12.0401C14.3874 13.2973 13.3588 14.3259 12.1017 14.3259H4.49014C2.59297 14.3259 1.06152 12.7944 1.06152 10.8973V4.42861C1.06152 2.53145 2.59297 1 4.49014 1Z" stroke="#021638" stroke-width="1.2" stroke-linecap="round" stroke-linejoin="round"/>
<path d="M17.0615 8.06323V13.5719C17.0615 15.469 15.5301 17.0005 13.6329 17.0005H8.12425C7.9871 17.0005 7.84996 17.0005 7.72424 16.9776" stroke="#021638" stroke-width="1.2" stroke-linecap="round" stroke-linejoin="round"/>
</svg>
