<svg width="92" height="80" viewBox="0 0 92 80" fill="none" xmlns="http://www.w3.org/2000/svg">
<path d="M58.9784 14.4082C40.9164 14.4082 26.2101 29.1295 26.2101 47.2041C26.2101 65.2787 40.9164 80.0001 58.9784 80.0001H88.7578C90.3898 80.0001 91.7284 78.6551 91.7284 77.0153V47.2041C91.7284 29.1295 77.0221 14.4082 58.9601 14.4082H58.9784ZM85.7872 74.0489H58.9784C44.1987 74.0489 32.1696 62.0176 32.1696 47.2041C32.1696 32.3907 44.1987 20.3594 58.9784 20.3594C73.7581 20.3594 85.7872 32.3907 85.7872 47.2041V74.0489Z" fill="#454EE8"/>
<path d="M83.6785 8.2911C75.977 2.87425 66.9001 0 57.4932 0C37.6525 0 20.7641 12.6946 14.4378 30.4007C12.7324 35.1359 11.8156 40.2579 11.7789 45.5642H6.53451C2.97712 45.5642 0.0615234 48.4385 0.0615234 51.9944V60.9488C0.0615234 64.5048 2.95878 67.4159 6.53451 67.4159H11.3205C14.8779 67.4159 17.7935 64.5048 17.7935 60.9488V45.5274C17.8301 40.1474 18.912 35.0622 20.8374 30.3639C26.8336 16.0295 41.0082 5.93275 57.4932 5.93275C65.7082 5.93275 73.5932 8.4385 80.2678 13.1368C80.7813 13.5053 81.3864 13.6895 81.9732 13.6895C82.9084 13.6895 83.8252 13.2473 84.412 12.4182C85.3655 11.1101 85.0355 9.24919 83.6785 8.30953V8.2911Z" fill="#021638"/>
<path d="M45.9777 54.0398C48.1415 54.0398 49.9019 52.2895 49.9019 50.1154C49.9019 47.9413 48.1415 46.1909 45.9777 46.1909C43.8139 46.1909 42.0536 47.9413 42.0536 50.1154C42.0536 52.2895 43.8139 54.0398 45.9777 54.0398Z" fill="#021638"/>
<path d="M58.9786 54.0398C61.1424 54.0398 62.9027 52.2895 62.9027 50.1154C62.9027 47.9413 61.1424 46.1909 58.9786 46.1909C56.8148 46.1909 55.0544 47.9413 55.0544 50.1154C55.0544 52.2895 56.8148 54.0398 58.9786 54.0398Z" fill="#021638"/>
<path d="M71.9428 54.0398C74.1066 54.0398 75.8669 52.2895 75.8669 50.1154C75.8669 47.9413 74.1066 46.1909 71.9428 46.1909C69.779 46.1909 68.0187 47.9413 68.0187 50.1154C68.0187 52.2895 69.779 54.0398 71.9428 54.0398Z" fill="#021638"/>
</svg>
