<svg width="36" height="36" viewBox="0 0 36 36" fill="none" xmlns="http://www.w3.org/2000/svg">
<path d="M34.6625 20.9401V3.52007C34.6625 2.15503 33.5075 1 32.1424 1H3.5816C2.21656 1 1.06152 2.15503 1.06152 3.52007V27.1458C1.06152 28.5108 2.21656 29.6659 3.5816 29.6659H17.232" stroke="#021638" stroke-width="1.2" stroke-linecap="round" stroke-linejoin="round"/>
<path d="M1.1665 7.19556H30.4624" stroke="#021638" stroke-width="1.2" stroke-linecap="round" stroke-linejoin="round"/>
<path d="M8.09672 4.88533C8.50623 4.88533 8.83174 4.55982 8.83174 4.15031C8.83174 3.74079 8.50623 3.41528 8.09672 3.41528C7.6872 3.41528 7.36169 3.74079 7.36169 4.15031C7.36169 4.55982 7.6872 4.88533 8.09672 4.88533Z" fill="#454EE8"/>
<path d="M4.84159 4.88533C5.2511 4.88533 5.57661 4.55982 5.57661 4.15031C5.57661 3.74079 5.2511 3.41528 4.84159 3.41528C4.43208 3.41528 4.10657 3.74079 4.10657 4.15031C4.10657 4.55982 4.43208 4.88533 4.84159 4.88533Z" fill="#021638"/>
<path d="M11.4568 4.88533C11.8663 4.88533 12.1918 4.55982 12.1918 4.15031C12.1918 3.74079 11.8663 3.41528 11.4568 3.41528C11.0473 3.41528 10.7218 3.74079 10.7218 4.15031C10.7218 4.55982 11.0473 4.88533 11.4568 4.88533Z" fill="#454EE8"/>
<path d="M10.1968 11.6055H17.337" stroke="#021638" stroke-width="1.2" stroke-linecap="round" stroke-linejoin="round"/>
<path d="M4.31665 11.6055H6.62672" stroke="#454EE8" stroke-width="1.2" stroke-linecap="round" stroke-linejoin="round"/>
<path d="M15.3 19.8484L13.0424 18.0843C12.7484 17.8848 12.3599 17.8848 12.0659 18.1788L9.2203 21.0244L5.58719 17.3913C5.09367 16.8978 4.31665 17.1918 4.31665 17.8848V25.1405C4.31665 25.9281 4.90467 26.5161 5.69219 26.5161H14.8065C15.489 26.5161 16.077 25.9281 16.077 25.2455V21.3184C16.077 20.7304 15.783 20.1424 15.2895 19.8484H15.3Z" fill="#DADCFA" stroke="#454EE8" stroke-width="1.2" stroke-linecap="round" stroke-linejoin="round"/>
<path d="M20.9176 32.9419C22.3561 34.2019 24.1307 34.916 26.1468 34.916C28.1628 34.916 29.9689 34.1914 31.4074 32.9104" stroke="#021638" stroke-width="1.2" stroke-linecap="round" stroke-linejoin="round"/>
<path d="M30.3469 21.7907C32.3735 19.1866 30.6829 17.454 29.0869 16.782C27.7953 16.236 25.2647 16.0995 23.4167 17.706C23.4167 17.706 21.4321 17.832 21.0016 19.4806C20.5606 21.1291 21.0646 22.4837 21.7996 23.0192C21.7996 23.0192 20.7076 22.8827 20.8336 24.2582C20.9596 25.6443 21.4321 26.5158 22.2407 26.5158C22.2407 26.5158 22.2407 28.1959 23.4902 28.8049C24.7292 29.4034 23.8892 30.7894 26.1468 30.7894C28.4043 30.7894 28.0263 29.6764 28.6353 29.0674C29.2444 28.4584 30.0109 27.4923 30.0424 26.4843C30.0424 26.4843 31.4284 26.1483 31.4599 24.5627C31.4914 22.9877 31.1554 22.9142 30.4519 23.1137C30.4519 23.1137 30.6304 22.3892 30.3469 21.7907C29.3494 22.8302 28.2783 22.8512 28.1943 22.8512C28.1943 22.8512 28.8768 21.0871 27.1758 20.6041C22.4717 20.8351 21.7996 23.0192 21.7996 23.0192" stroke="#021638" stroke-width="1.2" stroke-linecap="round" stroke-linejoin="round"/>
<path d="M29.0868 28.5737V30.4008C29.0868 30.9573 29.3178 31.4823 29.7378 31.8498C30.2208 32.2803 30.9453 32.7949 31.7854 33.0574C33.3394 33.5299 34.484 33.9709 35.0615 34.5379" stroke="#021638" stroke-width="1.2" stroke-linecap="round" stroke-linejoin="round"/>
<path d="M23.3012 28.7V30.401C23.3012 30.9575 23.0702 31.4825 22.6502 31.85C22.1672 32.2806 21.4427 32.7951 20.6026 33.0576C19.0486 33.5301 17.9041 33.9711 17.3265 34.5381" stroke="#021638" stroke-width="1.2" stroke-linecap="round" stroke-linejoin="round"/>
</svg>
