<svg width="36" height="36" viewBox="0 0 36 36" fill="none" xmlns="http://www.w3.org/2000/svg">
<path d="M35.0617 16.782V3.54207C35.0617 2.16512 33.893 1 32.5117 1H3.61154C2.23028 1 1.06152 2.16512 1.06152 3.54207V27.374C1.06152 28.3273 1.59278 29.2806 2.44278 29.5983" stroke="#021638" stroke-width="1.2" stroke-miterlimit="10" stroke-linecap="round" stroke-linejoin="round"/>
<path d="M1.16772 7.24927H30.8117" stroke="#021638" stroke-width="1.2" stroke-miterlimit="10" stroke-linecap="round" stroke-linejoin="round"/>
<path d="M8.18028 4.91964C8.59104 4.91964 8.92403 4.58769 8.92403 4.17821C8.92403 3.76872 8.59104 3.43677 8.18028 3.43677C7.76951 3.43677 7.43652 3.76872 7.43652 4.17821C7.43652 4.58769 7.76951 4.91964 8.18028 4.91964Z" fill="#454EE8"/>
<path d="M4.88658 4.91964C5.29734 4.91964 5.63033 4.58769 5.63033 4.17821C5.63033 3.76872 5.29734 3.43677 4.88658 3.43677C4.47581 3.43677 4.14282 3.76872 4.14282 4.17821C4.14282 4.58769 4.47581 4.91964 4.88658 4.91964Z" fill="#021638"/>
<path d="M11.5803 4.91964C11.9911 4.91964 12.3241 4.58769 12.3241 4.17821C12.3241 3.76872 11.9911 3.43677 11.5803 3.43677C11.1695 3.43677 10.8365 3.76872 10.8365 4.17821C10.8365 4.58769 11.1695 4.91964 11.5803 4.91964Z" fill="#454EE8"/>
<path d="M10.9429 11.2744H19.4429" stroke="#021638" stroke-width="1.2" stroke-miterlimit="10" stroke-linecap="round" stroke-linejoin="round"/>
<path d="M4.9928 11.2744H7.43656" stroke="#454EE8" stroke-width="1.2" stroke-miterlimit="10" stroke-linecap="round" stroke-linejoin="round"/>
<path d="M24.0117 19.43C24.0117 21.2306 22.6305 22.7135 20.8242 22.8194H20.3992C18.5929 22.7135 17.2117 21.2306 17.2117 19.43C17.2117 17.5234 18.6992 16.0405 20.6117 16.0405C22.418 16.0405 24.0117 17.6293 24.0117 19.43Z" fill="#DADCFA" stroke="#454EE8" stroke-width="1.2" stroke-miterlimit="10" stroke-linecap="round" stroke-linejoin="round"/>
<path d="M27.5179 32.3521V32.7757C27.5179 34.0468 26.5617 35.0001 25.2866 35.0001H15.9366C14.6616 35.0001 13.7053 34.0468 13.7053 32.7757V32.3521C13.7053 28.6449 16.6803 25.5732 20.3991 25.4673C20.5054 25.4673 20.5054 25.4673 20.6116 25.4673C20.7179 25.4673 20.7179 25.4673 20.8241 25.4673C24.5429 25.5732 27.5179 28.539 27.5179 32.3521Z" fill="#DADCFA" stroke="#454EE8" stroke-width="1.2" stroke-miterlimit="10" stroke-linecap="round" stroke-linejoin="round"/>
<path d="M32.6181 20.4894C32.6181 21.7604 31.5555 22.8196 30.2805 22.9255H29.9618C28.6868 22.8196 27.6243 21.7604 27.6243 20.4894C27.6243 19.1124 28.6868 18.0532 30.068 18.0532C31.5555 18.0532 32.6181 19.2183 32.6181 20.4894Z" stroke="#021638" stroke-width="1.2" stroke-miterlimit="10" stroke-linecap="round" stroke-linejoin="round"/>
<path d="M27.3054 26.3148C28.0492 25.7853 29.0054 25.4675 30.0679 25.3616H30.1742H30.2804C32.9367 25.4675 35.0617 27.5859 35.0617 30.2339V30.5516C35.0617 31.399 34.318 32.1404 33.468 32.1404H29.5367" stroke="#021638" stroke-width="1.2" stroke-miterlimit="10" stroke-linecap="round" stroke-linejoin="round"/>
<path d="M8.07397 20.4894C8.07397 21.7604 9.13648 22.8196 10.4115 22.9255H10.7302C12.0053 22.8196 13.0678 21.7604 13.0678 20.4894C13.0678 19.1124 12.0052 18.0532 10.624 18.0532C9.24273 18.0532 8.07397 19.2183 8.07397 20.4894Z" stroke="#021638" stroke-width="1.2" stroke-miterlimit="10" stroke-linecap="round" stroke-linejoin="round"/>
<path d="M13.3867 26.3148C12.6429 25.7853 11.6867 25.4675 10.6242 25.3616H10.5179H10.4117C7.75538 25.4675 5.63037 27.5859 5.63037 30.2339V30.5516C5.63037 31.399 6.37413 32.1404 7.22413 32.1404H11.1554" stroke="#021638" stroke-width="1.2" stroke-miterlimit="10" stroke-linecap="round" stroke-linejoin="round"/>
</svg>
