<svg width="18" height="18" viewBox="0 0 18 18" fill="none" xmlns="http://www.w3.org/2000/svg">
<path d="M13.5873 1.99429V15.9943C13.5873 16.5429 13.1416 17 12.593 17H9.62155C9.62155 15.7429 8.59297 14.7143 7.33583 14.7143C6.07868 14.7143 5.05011 15.7429 5.05011 17H2.06724C1.51867 17 1.06152 16.5543 1.06152 16.0058V2.00572C1.06152 1.45714 1.50724 1 2.05581 1H5.02725C5.02725 2.25715 6.05582 3.28572 7.31297 3.28572C8.57012 3.28572 9.59869 2.25715 9.59869 1H12.5701C13.1187 1 13.5758 1.44572 13.5758 1.99429H13.5873Z" stroke="#021638" stroke-width="1.2" stroke-linecap="round" stroke-linejoin="round"/>
<path d="M5.25574 9H9.38146" stroke="#454EE8" stroke-width="1.2" stroke-linecap="round" stroke-linejoin="round"/>
<path d="M13.5873 3.8114H15.9187C16.5473 3.8114 17.0616 4.32569 17.0616 4.95426V13.0571C17.0616 13.6857 16.5473 14.2 15.9187 14.2H13.5873V3.8114V3.8114Z" stroke="#021638" stroke-width="1.2" stroke-linecap="round" stroke-linejoin="round"/>
</svg>
