<svg width="35" height="35" viewBox="0 0 35 35" fill="none" xmlns="http://www.w3.org/2000/svg">
<path d="M34.0586 10.6934C34.0586 8.61538 34.0617 6.53683 34.057 4.4588C34.0555 3.76023 33.9494 3.0731 33.6342 2.44527C32.8217 0.8281 31.476 0.0234156 29.6867 0.0150931C25.5389 -0.00415276 21.3907 -0.00779386 17.2429 0.0208148C16.2089 0.028097 15.1618 0.10352 14.1444 0.281934C11.8661 0.681935 9.74122 1.51991 7.80363 2.79586C6.26865 3.80704 4.91936 5.02577 3.77501 6.47025C2.30609 8.32513 1.24913 10.385 0.643662 12.6747C0.248342 14.1701 0.0298757 15.6895 0.0652464 17.237C0.0813713 17.9267 0.137548 18.617 0.215572 19.3031C0.37474 20.7002 0.73729 22.0495 1.25485 23.3567C1.66317 24.3886 2.17293 25.3681 2.77423 26.3018C3.5992 27.5824 4.57918 28.7304 5.71104 29.7458C6.9152 30.8261 8.25409 31.7073 9.71521 32.4069C10.9059 32.977 12.1459 33.3879 13.4323 33.6755C15.3095 34.0953 17.2107 34.1489 19.1072 33.9346C21.0047 33.7198 22.8227 33.1814 24.5475 32.3309C26.5855 31.326 28.3493 29.9705 29.8453 28.2727C30.9132 27.0607 31.7824 25.713 32.4643 24.242C33.0198 23.0435 33.4271 21.7993 33.696 20.5109C33.9478 19.3057 34.0482 18.0807 34.0555 16.851C34.0669 14.799 34.0586 12.7465 34.0586 10.6939V10.6934Z" fill="#00C16C"/>
<path d="M22.6119 22.4209C22.6286 23.0758 22.4996 23.6869 22.124 24.2222C21.5753 25.0045 20.8523 25.5179 19.8686 25.5595C19.0993 25.5918 18.329 25.5866 17.5591 25.5985C17.5503 25.5985 17.542 25.5985 17.5331 25.5985C17.1368 25.5907 16.9271 25.4487 16.9214 25.1834C16.9162 24.9468 17.0785 24.8578 17.5175 24.8578C18.2447 24.8578 18.9724 24.8651 19.6996 24.8552C20.7654 24.8407 21.788 23.8737 21.8629 22.836C21.879 22.6144 21.8255 22.5244 21.5857 22.5338C21.1363 22.5514 20.6853 22.5332 20.2348 22.5421C20.047 22.5457 19.9794 22.4864 19.9799 22.2893C19.9867 20.4797 19.9872 18.6695 19.9789 16.8599C19.9779 16.6477 20.0512 16.5956 20.2489 16.5977C21.0109 16.6066 21.7729 16.6014 22.535 16.6014C22.6275 16.6014 22.7201 16.6014 22.8341 16.6014C22.846 15.586 22.8991 14.605 22.6093 13.6417C22.0434 11.7623 20.8465 10.4422 19.0067 9.80653C16.6764 9.00133 14.1453 9.63852 12.5661 11.6541C11.7334 12.7168 11.3448 13.9246 11.3386 15.2651C11.3365 15.6963 11.3386 16.1275 11.3386 16.5847C11.4546 16.591 11.5461 16.6003 11.6377 16.6003C12.4085 16.6014 13.1789 16.6076 13.9498 16.5967C14.1667 16.5936 14.2353 16.669 14.2343 16.8807C14.2286 18.6643 14.2275 20.4484 14.2343 22.2321C14.2353 22.4713 14.1537 22.5504 13.9175 22.5421C13.2351 22.5182 12.549 22.5447 11.8696 22.4906C10.5823 22.3881 9.57367 21.3057 9.56066 20.0131C9.54194 18.1946 9.50657 16.3746 9.56847 14.5582C9.62881 12.7896 10.2982 11.2292 11.4878 9.90693C12.5042 8.77714 13.7479 8.01927 15.2221 7.63956C16.6702 7.26608 18.1053 7.32018 19.5092 7.81693C21.8473 8.64398 23.4125 10.2544 24.187 12.6076C24.4304 13.3467 24.5376 14.1207 24.5355 14.9062C24.5303 16.5603 24.537 18.2144 24.5329 19.8679C24.5298 21.133 23.852 22.0396 22.6125 22.4198L22.6119 22.4209Z" fill="white"/>
</svg>
