<svg width="34" height="27" viewBox="0 0 34 27" fill="none" xmlns="http://www.w3.org/2000/svg">
<path d="M15.6953 7.16284V26.2078H0.0893555C5.29296 19.8575 10.4817 13.5253 15.6953 7.16284Z" fill="#02363D"/>
<path d="M18.0959 19.0405V0.00366211H33.6958C28.4919 6.35422 23.3073 12.6812 18.0959 19.0408V19.0405Z" fill="#02363D"/>
<path d="M0.0615234 0H15.6217C15.53 2.67409 14.5315 4.90863 12.3534 6.47062C9.70323 8.37146 6.84615 8.54735 4.01392 6.91404C1.40051 5.40692 0.197067 3.0023 0.0615234 0Z" fill="#02363D"/>
<path d="M18.165 26.205C18.3464 23.3647 19.514 21.0749 21.9474 19.5823C24.5911 17.9606 27.3369 17.9681 29.9725 19.6004C32.3868 21.0953 33.5441 23.3805 33.7252 26.205H18.1654H18.165Z" fill="#02363D"/>
</svg>
