<svg width="35" height="34" viewBox="0 0 35 34" fill="none" xmlns="http://www.w3.org/2000/svg">
<path d="M17.0615 34C26.4504 34 34.0615 26.3888 34.0615 17C34.0615 7.61116 26.4504 0 17.0615 0C7.67268 0 0.0615234 7.61116 0.0615234 17C0.0615234 26.3888 7.67268 34 17.0615 34Z" fill="#00A1DD"/>
<path d="M19.8266 14.3483C19.8325 14.2461 19.8438 14.1407 19.8438 14.0345C19.8438 11.8719 19.8418 9.70857 19.8392 7.54592C19.8392 7.07624 19.8365 7.07624 20.2783 6.91106C21.229 6.55614 22.1796 6.20057 23.1309 5.84698C23.2523 5.80187 23.3777 5.7687 23.5482 5.71497C23.5615 5.86954 23.5794 5.9843 23.5794 6.09907C23.5787 11.0095 23.5873 15.9199 23.5701 20.8303C23.5568 24.5479 20.9424 27.6201 17.2659 28.1906C13.1257 28.8327 9.25548 26.075 8.59474 21.9673C7.9486 17.9465 10.6274 14.1672 14.6429 13.4481C16.4148 13.131 18.0918 13.3419 19.6415 14.3072C19.6694 14.3244 19.6985 14.3417 19.7297 14.3516C19.7483 14.3576 19.7715 14.351 19.8259 14.3476L19.8266 14.3483ZM20.1271 24.4146L20.1311 24.3051C20.0488 24.2361 19.9546 24.1771 19.8863 24.0961C19.674 23.8467 19.4564 23.5986 19.268 23.3313C19.1095 23.1057 19.136 22.8835 19.2919 22.6301C19.8219 21.7683 20.0064 20.8323 19.7602 19.8372C19.3184 18.054 17.6473 16.8937 15.7182 17.0211C13.206 17.1869 11.5846 19.8252 12.5744 22.1372C13.3711 23.998 15.4966 24.8876 17.4424 24.1558C17.7051 24.057 17.9107 24.061 18.1582 24.183C18.6285 24.4152 19.136 24.528 19.6634 24.5048C19.8186 24.4982 19.9725 24.4457 20.1264 24.4146H20.1271Z" fill="white"/>
</svg>
